<?xml version="1.0" encoding="UTF-8"?>
<svg width="105px" height="46px" viewBox="0 0 105 46" version="1.1" xmlns="http://www.w3.org/2000/svg" xmlns:xlink="http://www.w3.org/1999/xlink">
    <!-- Generator: Sketch 51.2 (57519) - http://www.bohemiancoding.com/sketch -->
    <title>gearset-svg-logo</title>
    <desc>Created with Sketch.</desc>
    <defs></defs>
    <g id="Page-1" stroke="none" stroke-width="1" fill="none" fill-rule="evenodd">
        <g id="gearset-svg-logo" fill-rule="nonzero">
            <path d="M26.9263804,22.0929577 L32.7239264,22.0929577 L32.7239264,29.0966197 C31.8291114,29.3587503 30.9161691,29.5536529 29.992638,29.6797183 C29.0545644,29.7967753 28.1099775,29.8530417 27.1647239,29.848169 C24.7769939,29.848169 22.9368098,29.2240376 21.6441718,27.9757746 C20.3515337,26.7275117 19.707362,24.9652582 19.7116564,22.6890141 C19.6023224,20.6908787 20.4008851,18.7508805 21.8825153,17.4152113 C23.342638,16.1453521 25.3503067,15.5104225 27.9055215,15.5104225 C29.5023491,15.5030585 31.0871407,15.7884735 32.5822086,16.3526761 L31.6868098,18.2574648 C30.4617841,17.74462 29.1486805,17.4782834 27.8217791,17.4735211 C26.3611558,17.3928798 24.9279994,17.8958641 23.8343558,18.8729577 C22.8252226,19.8835225 22.2911834,21.2781487 22.3656442,22.7084507 C22.2565737,24.1259126 22.7211316,25.5276249 23.6539877,26.5957746 C24.6895878,27.538164 26.0611301,28.0174656 27.4546012,27.9239437 C28.3524922,27.9168982 29.2476615,27.8236107 30.1279141,27.6453521 L30.1279141,24.0495775 L26.9263804,24.0495775 L26.9263804,22.1059155 L26.9263804,22.0929577 Z" id="Shape" fill="#2A303B"></path>
            <path d="M41.9935583,29.848169 C40.4151231,29.9417605 38.8604582,29.4274993 37.6453988,28.4098592 C36.5643457,27.3909817 35.9826309,25.9460719 36.0542945,24.4577465 C35.9786779,22.9574107 36.5135969,21.4907639 37.5358896,20.395493 C38.6061406,19.3664814 40.0511832,18.8273252 41.5297546,18.9053521 C42.8926587,18.8371464 44.2290266,19.3014214 45.2595092,20.2011268 C46.1970077,21.1111296 46.6973265,22.3844972 46.6315951,23.6932394 L46.6315951,24.9047887 L38.6889571,24.9047887 C38.6700479,25.7869079 39.0097087,26.6386181 39.6294479,27.2630986 C40.3241317,27.8499127 41.2170809,28.144638 42.1223926,28.0859155 C42.7813293,28.0902802 43.4391896,28.0317074 44.0871166,27.9109859 C44.7474346,27.7726349 45.3941684,27.5753275 46.0196319,27.3214085 L46.0196319,29.1419718 C45.417945,29.3975005 44.7889321,29.5822926 44.145092,29.6926761 C43.4334189,29.8042191 42.7137763,29.8562282 41.9935583,29.848169 Z M41.5297546,20.6157746 C40.8267048,20.5736895 40.1345728,20.8057309 39.5972393,21.263662 C39.0825552,21.7840131 38.7734866,22.4747938 38.7276074,23.2073239 L44.1386503,23.2073239 C44.1771535,22.4794706 43.9216165,21.7668497 43.4300613,21.2312676 C42.9028149,20.7808159 42.2192731,20.5594226 41.5297546,20.6157746 Z" id="Shape" fill="#2A303B"></path>
            <path d="M57.5180982,29.6602817 L57.0092025,28.1895775 L56.9319018,28.1895775 C56.4581316,28.7494124 55.8631648,29.1926706 55.192638,29.4853521 C54.4733503,29.740439 53.7132439,29.8590668 52.9509202,29.8352113 C51.9735457,29.8929635 51.0076362,29.598993 50.2260736,29.0059155 C49.5515825,28.4078643 49.188117,27.5309935 49.2404908,26.628169 C49.1999262,25.6130054 49.7304021,24.6611579 50.6125767,24.1661972 C51.893269,23.5324774 53.3085982,23.2233126 54.7352761,23.2656338 L56.7966258,23.2073239 L56.7966258,22.643662 C56.8425389,22.0865521 56.6477327,21.5365321 56.2619632,21.1340845 C55.7927979,20.7630319 55.2011723,20.584752 54.6064417,20.6352113 C54.0120566,20.6331327 53.4202455,20.7138041 52.8478528,20.8749296 C52.298256,21.0303929 51.7583447,21.2186129 51.2309816,21.4385915 L50.4128834,19.8383099 C51.0928582,19.5294393 51.8062383,19.3011454 52.5386503,19.1580282 C53.260616,19.0001383 53.9965089,18.9154891 54.7352761,18.9053521 C55.9433026,18.8201264 57.1466741,19.1266783 58.1687117,19.78 C58.9784864,20.4527864 59.4112293,21.4804338 59.3282209,22.5335211 L59.3282209,29.6602817 L57.5180982,29.6602817 Z M53.7432515,28.1312676 C54.5381611,28.1712214 55.3219715,27.9305969 55.9592025,27.4509859 C56.5325038,26.9759615 56.8440431,26.252878 56.7966258,25.5073239 L56.7966258,24.6197183 L55.2634969,24.6780282 C54.3754756,24.6542319 53.4938938,24.8359986 52.6868098,25.2092958 C52.1432206,25.4900043 51.8150218,26.0663955 51.8493865,26.68 C51.8214238,27.1012904 51.9992997,27.5098636 52.3260736,27.7749296 C52.7470369,28.0518807 53.2487693,28.1774664 53.7496933,28.1312676 L53.7432515,28.1312676 Z" id="Shape" fill="#2A303B"></path>
            <path d="M69.4674847,18.9053521 C69.8990053,18.8972958 70.3303298,18.9298317 70.7558282,19.0025352 L70.5110429,21.0887324 C70.1424552,21.0108709 69.7668137,20.9717873 69.390184,20.9721127 C68.4860679,20.9303824 67.6012736,21.244054 66.9230061,21.8467606 C66.294301,22.4329522 65.9508942,23.2656673 65.9825153,24.1273239 L65.9825153,29.6602817 L63.4187117,29.6602817 L63.4187117,19.1061972 L65.4027607,19.1061972 L65.7377301,20.9656338 L65.8665644,20.9656338 C66.2511944,20.3460758 66.7823276,19.8319114 67.4125767,19.4690141 C68.0351863,19.0998808 68.7447512,18.9052469 69.4674847,18.9053521 Z" id="Shape" fill="#2A303B"></path>
            <path d="M81.5006135,26.68 C81.5328368,27.6474802 81.0392285,28.5559937 80.2122699,29.0512676 C79.0984884,29.666101 77.8344461,29.9513648 76.5662577,29.8740845 C75.2603613,29.9205654 73.9586594,29.7001596 72.7398773,29.2261972 L72.7398773,27.2825352 C73.9758052,27.8206897 75.3035713,28.1132951 76.65,28.1442254 C78.2088957,28.1442254 78.9883436,27.7274178 78.9883436,26.8938028 C78.9903772,26.6521881 78.8978227,26.4194673 78.7306748,26.2459155 C78.4795003,26.0162761 78.192157,25.8301772 77.8803681,25.6952113 C77.3432784,25.4481062 76.7927033,25.2317973 76.2312883,25.0473239 C75.2175806,24.7672918 74.2694133,24.2871701 73.4420245,23.6349296 C72.952985,23.1544648 72.6886005,22.4885145 72.7141104,21.8014085 C72.6996256,20.921384 73.1775749,20.1076887 73.9509202,19.6957746 C74.9838585,19.12897 76.1507444,18.8557234 77.3263804,18.9053521 C78.6889906,18.8970545 80.0404911,19.1521974 81.307362,19.6569014 L80.5021472,21.3608451 C79.4754879,20.9454873 78.3866814,20.7067584 77.2812883,20.6546479 C75.9457055,20.6546479 75.2779141,20.9915493 75.2779141,21.6653521 C75.289538,22.0197592 75.4885032,22.3409279 75.7996933,22.5076056 C76.5143679,22.8924937 77.2652953,23.2050145 78.041411,23.4405634 C78.7868853,23.6725532 79.5059062,23.9831029 80.1865031,24.3670423 C80.5896129,24.606638 80.929782,24.9398827 81.1785276,25.3388732 C81.4075105,25.7472078 81.5190302,26.2115624 81.5006135,26.68 Z" id="Shape" fill="#2A303B"></path>
            <path d="M89.9972393,29.848169 C88.4210687,29.9394355 86.8692419,29.4253514 85.6555215,28.4098592 C84.5839536,27.3862866 84.0119111,25.9420124 84.090184,24.4577465 C84.0076458,22.9611255 84.5330827,21.4949788 85.5460123,20.395493 C86.6115646,19.3715135 88.0485695,18.8327494 89.5205521,18.9053521 C90.8833603,18.8378233 92.2194843,19.3020135 93.2503067,20.2011268 C94.1854398,21.1122796 94.6833503,22.3854952 94.6159509,23.6932394 L94.6159509,24.9047887 L86.6861963,24.9047887 C86.6672871,25.7869079 87.006948,26.6386181 87.6266871,27.2630986 C88.3193948,27.8489146 89.2099693,28.1436176 90.1131902,28.0859155 C90.7721285,28.0903192 91.4299924,28.0317462 92.0779141,27.9109859 C92.7382661,27.7727688 93.3850117,27.5754578 94.0104294,27.3214085 L94.0104294,29.1419718 C93.4087619,29.3975551 92.7797426,29.582349 92.1358896,29.6926761 C91.4284667,29.803536 90.7131601,29.8555431 89.9972393,29.848169 Z M89.5205521,20.6157746 C88.8175024,20.5736895 88.1253704,20.8057309 87.5880368,21.263662 C87.0738441,21.7843531 86.764863,22.4749382 86.7184049,23.2073239 L92.1294479,23.2073239 C92.167951,22.4794706 91.9124141,21.7668497 91.4208589,21.2312676 C90.8936124,20.7808159 90.2100706,20.5594226 89.5205521,20.6157746 Z" id="Shape" fill="#2A303B"></path>
            <path d="M102.500613,28.0340845 C103.127812,28.0322822 103.751881,27.9451059 104.355828,27.7749296 L104.355828,29.4659155 C104.004901,29.5923058 103.642398,29.6834543 103.27362,29.7380282 C102.819975,29.8120309 102.361106,29.8488655 101.901534,29.848169 C99.5009202,29.848169 98.3006135,28.7294836 98.3006135,26.4921127 L98.3006135,20.803662 L96.6708589,20.803662 L96.6708589,19.8123944 L98.4165644,18.9895775 L99.2797546,16.7608451 L100.845092,16.7608451 L100.845092,19.1061972 L104.239877,19.1061972 L104.239877,20.803662 L100.845092,20.803662 L100.845092,26.4532394 C100.807931,26.9019996 100.976324,27.3433001 101.302454,27.651831 C101.643618,27.9191076 102.06865,28.054707 102.500613,28.0340845 Z" id="Shape" fill="#2A303B"></path>
            <path d="M26.0374233,-4.73173926e-15 C25.6380368,0.978309859 25.0711656,2.25464789 24.4141104,3.68647887 C23.0674313,3.53984558 21.708949,3.53984558 20.3622699,3.68647887 C19.7180982,2.26760563 19.0739264,1.00422535 18.7003067,0.025915493 C15.1379662,0.298414011 11.7623167,1.73656135 9.0892638,4.12056338 C9.49509202,5.09239437 9.98466258,6.40112676 10.5257669,7.87830986 C9.48657261,8.74381348 8.54281604,9.71907857 7.7107362,10.7873239 C6.23558282,10.2625352 4.93435583,9.78309859 3.96165644,9.38140845 C1.63762964,12.1059201 0.258352983,15.5171469 0.032208589,19.0997183 C1.00490798,19.5014085 2.27392638,20.0715493 3.69110429,20.7388732 C3.54524829,22.0954824 3.54524829,23.4639543 3.69110429,24.8205634 C2.28680982,25.5008451 1.03067485,26.116338 0.0579754601,26.4985915 C0.316802774,30.0836559 1.7301833,33.4862368 4.08404908,36.1909859 C5.05030675,35.7828169 6.34509202,35.2839437 7.81380368,34.7461972 C8.67042007,35.8024966 9.63799769,36.7626218 10.6996933,37.6098592 C10.1843558,39.1 9.70122699,40.4087324 9.30828221,41.3935211 C12.0122375,43.7409629 15.4059213,45.1335723 18.9708589,45.3585915 C19.3702454,44.3802817 19.9371166,43.1039437 20.5941718,41.6721127 C21.9408778,41.818243 23.2993062,41.818243 24.6460123,41.6721127 C25.290184,43.0909859 25.9343558,44.3543662 26.3144172,45.3326761 C29.1800083,45.1108772 31.9370836,44.1344136 34.308589,42.5014085 L34.308589,36.4371831 C32.6592569,37.5637959 30.7442333,38.2341216 28.7558282,38.3808451 C28.4723926,37.7329577 28.0665644,36.8259155 27.6027607,35.8411268 C26.6671186,35.9424021 25.7233722,35.9424021 24.7877301,35.8411268 C24.3303681,36.8323944 23.9309816,37.72 23.6604294,38.4326761 C21.1868954,38.2727683 18.8326456,37.3060754 16.9546012,35.6791549 C17.2315951,34.9923944 17.5665644,34.0853521 17.9208589,33.0487324 C17.1849997,32.4588615 16.5134489,31.7921243 15.9174847,31.0597183 C14.8996933,31.435493 13.9849693,31.7788732 13.3407975,32.0639437 C11.7030186,30.188683 10.7170958,27.8279244 10.5322086,25.3388732 C11.1763804,25.0538028 12.0782209,24.6456338 13.057362,24.1726761 C12.956005,23.2295071 12.956005,22.2780985 13.057362,21.3349296 C12.0202454,20.8490141 11.1441718,20.4797183 10.4677914,20.2011268 C10.6254555,17.7103232 11.5840741,15.3386104 13.1990798,13.443662 C13.8754601,13.7222535 14.7773006,14.0591549 15.7757669,14.4219718 C16.3714917,13.6874017 17.0430437,13.0184916 17.7791411,12.4264789 C17.4055215,11.4028169 17.0705521,10.4828169 16.7806748,9.83492958 C18.638344,8.18387779 20.9821338,7.1895304 23.4542945,7.00366197 C23.7377301,7.6515493 24.1435583,8.55859155 24.607362,9.54338028 C25.5429528,9.44114816 26.4868018,9.44114816 27.4223926,9.54338028 C27.8797546,8.55211268 28.2791411,7.66450704 28.5496933,6.95183099 C30.6063459,7.08662014 32.5879556,7.78082492 34.2828221,8.96028169 L34.2828221,2.89605634 C31.8454313,1.19830409 28.9957587,0.197404974 26.0374233,-4.73173926e-15 Z" id="Shape" fill="#F7AD27"></path>
        </g>
    </g>
</svg>